<?xml version="1.0" encoding="UTF-8"?>
<svg width="298px" height="338px" viewBox="0 0 298 338" version="1.1" xmlns="http://www.w3.org/2000/svg" xmlns:xlink="http://www.w3.org/1999/xlink">
    <title>checked-box</title>
    <defs>
        <path d="M289.116578,9.12007261 C268.771104,42.5317049 247.628337,78.4434684 225.688278,116.855363 C186.859609,184.835247 160.765947,236.605326 147.407293,272.1656 L147.406434,272.165277 C146.23985,275.266848 142.779826,276.835465 139.678255,275.668882 C138.755939,275.321974 137.933261,274.753245 137.282906,274.012942 C119.088633,253.32749 104.791687,238.219837 94.3925495,228.689561 C86.4074845,221.371658 73.2016176,210.451457 54.7749488,195.928959 L54.7712647,195.933636 C52.1681566,193.88315 51.7201678,190.110666 53.7706537,187.507558 C55.387595,185.454839 58.1471151,184.684646 60.5933809,185.603308 C78.063729,192.172559 92.0127854,198.408033 102.439989,204.311224 C118.996592,213.684475 129.65271,219.816885 134.408344,222.708454 C150.555099,191.256521 173.964712,151.970183 204.637182,104.84944 C223.707787,75.5521238 248.587602,41.367261 279.276629,2.29485163 L279.275124,2.29366996 C281.322215,-0.312108839 285.094111,-0.765014928 287.69989,1.2820759 C290.08915,3.15907018 290.698188,6.52581309 289.117917,9.12088815 Z" id="path-1"></path>
        <filter x="-5.9%" y="-3.6%" width="111.8%" height="110.1%" filterUnits="objectBoundingBox" id="filter-2">
            <feOffset dx="0" dy="4" in="SourceAlpha" result="shadowOffsetOuter1"></feOffset>
            <feGaussianBlur stdDeviation="4" in="shadowOffsetOuter1" result="shadowBlurOuter1"></feGaussianBlur>
            <feColorMatrix values="0 0 0 0 0   0 0 0 0 0   0 0 0 0 0  0 0 0 0.5 0" type="matrix" in="shadowBlurOuter1"></feColorMatrix>
        </filter>
    </defs>
    <g id="Symbols" stroke="none" stroke-width="1" fill="none" fill-rule="evenodd">
        <g id="app/logo" transform="translate(-24, -4)" fill-rule="nonzero">
            <g id="checked-box" transform="translate(24, 8)">
                <g id="Combined-Shape-Copy">
                    <use fill="black" fill-opacity="1" filter="url(#filter-2)" xlink:href="#path-1"></use>
                    <use fill="#083D34" xlink:href="#path-1"></use>
                </g>
                <path d="M144,45.5573942 C166.474572,45.5573942 187.746604,50.706077 206.700933,59.8882786 L192.652136,84.2224507 C177.856177,77.3770578 161.374154,73.5573942 144,73.5573942 C79.934969,73.5573942 28,125.492363 28,189.557394 C28,253.622425 79.934969,305.557394 144,305.557394 C208.065031,305.557394 260,253.622425 260,189.557394 C260,168.201416 254.228925,148.193344 244.16123,131.007636 L259.791023,103.935629 C277.517074,127.867931 288,157.488453 288,189.557394 C288,269.086398 223.529004,333.557394 144,333.557394 C64.470996,333.557394 0,269.086398 0,189.557394 C0,110.02839 64.470996,45.5573942 144,45.5573942 Z" id="Combined-Shape" fill="#0F7B69"></path>
            </g>
        </g>
    </g>
</svg>