<?xml version="1.0" encoding="UTF-8"?>
<svg width="167px" height="167px" viewBox="0 0 167 167" version="1.1" xmlns="http://www.w3.org/2000/svg" xmlns:xlink="http://www.w3.org/1999/xlink">
    <title>checkmark/completed copy</title>
    <defs>
        <path d="M144.573277,4.55850309 C134.395936,21.2712957 123.819557,39.2353821 112.844139,58.4507624 C93.4278612,92.4441065 80.3803619,118.330926 73.7016408,136.11122 L73.7009503,136.110959 C73.1169401,137.661475 71.3865652,138.444982 69.8360498,137.860972 C69.3757415,137.687594 68.9651251,137.403694 68.6403618,137.034272 C59.5452938,126.687859 52.3961991,119.133325 47.1962748,114.367861 C43.2033868,110.708584 36.5996331,105.247837 27.3850137,97.9856208 L27.3824548,97.9888673 C26.0812095,96.9632326 25.8577831,95.0769236 26.8834178,93.7756783 C27.692247,92.7494991 29.0722347,92.3648405 30.2952709,92.8246565 C39.0311886,96.1090581 46.0061401,99.2269541 51.2199945,102.178693 C59.4982958,106.865319 64.8263548,109.931524 67.2041718,111.377308 C75.2775496,95.6513414 86.9823561,76.0081725 102.318591,52.4478009 C111.857404,37.7937502 124.30296,20.6941266 139.655262,1.14893033 L139.653092,1.14722633 C140.676421,-0.155832689 142.562332,-0.382598304 143.865391,0.640731158 C145.060065,1.57894262 145.364933,3.26205664 144.575247,4.55970183 Z" id="path-1"></path>
        <filter x="-5.9%" y="-3.6%" width="111.8%" height="110.1%" filterUnits="objectBoundingBox" id="filter-2">
            <feOffset dx="0" dy="2" in="SourceAlpha" result="shadowOffsetOuter1"></feOffset>
            <feGaussianBlur stdDeviation="2" in="shadowOffsetOuter1" result="shadowBlurOuter1"></feGaussianBlur>
            <feColorMatrix values="0 0 0 0 0   0 0 0 0 0   0 0 0 0 0  0 0 0 0.5 0" type="matrix" in="shadowBlurOuter1"></feColorMatrix>
        </filter>
    </defs>
    <g id="checkmark/completed-copy" stroke="none" stroke-width="1" fill="none" fill-rule="evenodd">
        <g id="checked-box" transform="translate(11, 0)" fill-rule="nonzero">
            <path d="M72,22.8017779 C83.2375355,22.8017779 93.8737746,25.3762337 103.351098,29.9675262 L96.325626,42.1341017 C88.9277602,38.7115336 80.6869038,36.8017779 72,36.8017779 C39.9674845,36.8017779 14,62.7692624 14,94.8017779 C14,126.834293 39.9674845,152.801778 72,152.801778 C104.032515,152.801778 130,126.834293 130,94.8017779 C130,84.1235812 127.11435,74.1193641 122.080322,65.5263978 L129.89502,51.9902316 C138.758343,63.956499 144,78.7670112 144,94.8017779 C144,134.56628 111.764502,166.801778 72,166.801778 C32.235498,166.801778 0,134.56628 0,94.8017779 C0,55.037276 32.235498,22.8017779 72,22.8017779 Z" id="Combined-Shape" fill="#0A7065"></path>
            <g id="Combined-Shape-Copy">
                <use fill="black" fill-opacity="1" filter="url(#filter-2)" xlink:href="#path-1"></use>
                <use fill="#DAA520" xlink:href="#path-1"></use>
            </g>
        </g>
    </g>
</svg>